# 3ds Max Wavefront OBJ Exporter v0.97b - (c)2007 guruware
# File Created: 02.12.2013 18:21:07

#
# object Box003
#

v  7.6882 16.8127 3.0000
v  7.6882 16.8127 -3.0000
v  7.6882 17.3127 -3.0000
v  7.6882 17.3127 3.0000
v  5.6942 16.8127 -3.0000
v  5.6942 17.9384 -3.0000
v  6.9741 17.5368 -3.0000
v  6.9741 16.8127 -3.0000
v  6.9741 12.8155 -3.0000
v  6.9741 12.8155 3.0000
v  5.6942 12.8155 3.0000
v  5.6942 12.8155 -3.0000
v  6.9741 17.5368 3.0000
v  5.6942 17.9384 3.0000
v  5.6942 16.8127 3.0000
v  6.9741 16.8127 3.0000
v  10.3572 16.8222 3.0000
v  10.3572 16.8222 -3.0000
v  11.0773 16.8222 -3.0000
v  11.0773 16.8222 3.0000
v  10.0646 17.3127 3.0000
v  11.0773 22.2473 3.0000
v  11.0773 22.2473 -3.0000
v  10.0646 17.3127 -3.0000
v  0.0000 16.8127 -3.0000
v  0.0000 19.7254 -3.0000
v  0.0000 16.8127 3.0000
v  0.0000 19.7254 3.0000
v  5.6942 13.7045 3.0000
v  6.9741 13.7045 3.0000
v  5.6942 13.7045 -3.0000
v  6.9741 13.7045 -3.0000
v  12.9137 10.5486 3.0000
v  12.9137 10.5486 -3.0000
v  12.9137 11.4376 -3.0000
v  12.9137 11.4376 3.0000
v  -7.6882 16.8127 3.0000
v  -7.6882 17.3127 3.0000
v  -7.6882 17.3127 -3.0000
v  -7.6882 16.8127 -3.0000
v  -5.6942 16.8127 -3.0000
v  -6.9741 16.8127 -3.0000
v  -6.9741 17.5368 -3.0000
v  -5.6942 17.9384 -3.0000
v  -6.9741 12.8155 -3.0000
v  -5.6942 12.8155 -3.0000
v  -5.6942 12.8155 3.0000
v  -6.9741 12.8155 3.0000
v  -6.9741 17.5368 3.0000
v  -5.6942 17.9384 3.0000
v  -5.6942 16.8127 3.0000
v  -6.9741 16.8127 3.0000
v  -10.3572 16.8222 3.0000
v  -11.0773 16.8222 3.0000
v  -11.0773 16.8222 -3.0000
v  -10.3572 16.8222 -3.0000
v  -10.0646 17.3127 3.0000
v  -10.0646 17.3127 -3.0000
v  -11.0773 22.2473 -3.0000
v  -11.0773 22.2473 3.0000
v  -6.9741 13.7045 3.0000
v  -5.6942 13.7045 3.0000
v  -5.6942 13.7045 -3.0000
v  -6.9741 13.7045 -3.0000
v  -12.9137 10.5486 3.0000
v  -12.9137 11.4376 3.0000
v  -12.9137 11.4376 -3.0000
v  -12.9137 10.5486 -3.0000
v  7.9176 -0.0137 -3.0000
v  7.9176 -0.0137 3.0000
v  5.2674 -0.0137 3.0000
v  5.2674 -0.0137 -3.0000
v  7.9176 2.0445 3.0000
v  7.9176 2.0445 -3.0000
v  5.2674 2.0445 -3.0000
v  5.2674 2.0445 3.0000
v  12.6163 -0.0137 3.0000
v  12.6163 -0.0137 -3.0000
v  12.6163 2.0422 -3.0000
v  12.6163 2.0422 3.0000
v  11.7235 -0.0137 -3.0000
v  11.7235 -0.0137 3.0000
v  -0.3677 -0.0137 3.0000
v  -0.3677 -0.0137 -3.0000
v  11.7235 4.9359 3.0000
v  11.7235 4.9359 -3.0000
v  7.9176 3.6303 -3.0000
v  7.9176 3.6303 3.0000
v  -0.3677 3.6303 -3.0000
v  -0.3677 3.6303 3.0000
v  5.2674 3.6303 3.0000
v  5.2674 3.6303 -3.0000
v  11.7235 2.0426 3.0000
v  -0.3677 2.0501 3.0000
v  -0.3677 2.0501 -3.0000
v  11.7235 2.0426 -3.0000
v  12.6163 4.9359 -3.0000
v  12.6163 4.9359 3.0000
v  12.6163 9.9510 3.0000
v  12.6163 9.9510 -3.0000
v  11.7235 9.9510 -3.0000
v  11.7235 9.9510 3.0000
v  -8.6531 -0.0137 -3.0000
v  -6.0029 -0.0137 -3.0000
v  -6.0029 -0.0137 3.0000
v  -8.6531 -0.0137 3.0000
v  -8.6531 2.0445 3.0000
v  -6.0029 2.0445 3.0000
v  -6.0029 2.0445 -3.0000
v  -8.6531 2.0445 -3.0000
v  -13.3517 -0.0137 3.0000
v  -13.3517 2.0422 3.0000
v  -13.3517 2.0422 -3.0000
v  -13.3517 -0.0137 -3.0000
v  -12.4590 -0.0137 -3.0000
v  -12.4590 -0.0137 3.0000
v  -12.4590 4.9359 3.0000
v  -8.6531 3.6303 3.0000
v  -8.6531 3.6303 -3.0000
v  -12.4590 4.9359 -3.0000
v  -6.0029 3.6303 -3.0000
v  -6.0029 3.6303 3.0000
v  -12.4590 2.0426 3.0000
v  -12.4590 2.0426 -3.0000
v  -13.3517 4.9359 3.0000
v  -13.3517 4.9359 -3.0000
v  -13.3517 9.9510 3.0000
v  -12.4590 9.9510 3.0000
v  -12.4590 9.9510 -3.0000
v  -13.3517 9.9510 -3.0000
# 130 vertices

vn 1.0000 0.0000 -0.0000
vn -0.0000 0.0000 -1.0000
vn -0.0000 -0.0000 -1.0000
vn 0.0000 0.0000 -1.0000
vn 0.0000 -1.0000 -0.0000
vn 0.2994 0.9541 0.0000
vn 0.0000 0.0000 1.0000
vn -0.9796 0.2010 -0.0000
vn -0.0000 -0.0000 1.0000
vn 0.0000 -0.0000 1.0000
vn -0.8588 -0.5124 -0.0000
vn 0.0000 -0.0000 -1.0000
vn 0.2994 0.9541 -0.0000
vn -0.0000 1.0000 0.0000
vn 0.0000 1.0000 -0.0000
vn -1.0000 0.0000 -0.0000
vn -0.3566 -0.9343 -0.0000
vn 0.3566 0.9343 -0.0000
vn -0.2994 0.9541 0.0000
vn 0.9796 0.2010 -0.0000
vn 0.8588 -0.5124 -0.0000
vn -0.2994 0.9541 -0.0000
vn 0.3566 -0.9343 -0.0000
vn -0.3566 0.9343 -0.0000
vn -0.3245 0.9459 -0.0000
vn 1.0000 0.0000 0.0000
vn 0.3245 0.9459 -0.0000
vn -1.0000 0.0000 0.0000
# 28 vertex normals

vt 0.0000 0.0000 0.0000
vt 1.0000 0.0000 0.0000
vt 1.0000 1.0000 0.0000
vt 0.0000 1.0000 0.0000
vt 0.1218 0.0000 0.0000
vt 0.1218 1.0000 0.0000
vt 0.0436 1.0000 0.0000
vt 0.0436 0.0000 0.0000
vt 0.9564 0.0000 0.0000
vt 0.9564 1.0000 0.0000
vt 0.8782 1.0000 0.0000
vt 0.8782 0.0000 0.0000
vt 0.4696 0.0000 0.0000
vt 0.4696 1.0000 0.0000
vt 0.5304 1.0000 0.0000
vt 0.5304 0.0000 0.0000
vt 0.4395 0.0000 0.0000
vt 0.4270 0.0000 0.0000
vt 0.0436 0.5800 0.0000
vt 0.1218 0.5800 0.0000
vt 0.4324 1.0000 0.0000
vt 0.4324 0.0000 0.0000
vt 0.5676 0.0000 0.0000
vt 0.5676 1.0000 0.0000
vt 0.0822 1.0000 0.0000
vt 0.0822 0.0000 0.0000
vt 0.8549 0.0000 0.0000
vt 0.8549 1.0000 0.0000
vt 0.9178 0.0000 0.0000
vt 0.9178 1.0000 0.0000
vt 0.1451 1.0000 0.0000
vt 0.1451 0.0000 0.0000
# 32 texture coords

g Box003
s 16
f 1/1/1 2/2/1 3/3/1 
f 3/3/1 4/4/1 1/1/1 
s 32
f 5/5/2 6/6/3 7/7/4 
f 7/7/4 8/8/4 5/5/2 
s 2
f 9/7/5 10/8/5 11/5/5 
f 11/5/5 12/6/5 9/7/5 
s 4
f 13/9/6 7/10/6 6/11/6 
f 6/11/6 14/12/6 13/9/6 
s 8
f 15/12/7 16/9/7 13/10/7 
f 13/10/7 14/11/7 15/12/7 
s 2
f 17/2/5 18/3/5 19/4/5 
f 19/4/5 20/1/5 17/2/5 
s 4
f 21/1/8 22/2/8 23/3/8 
f 23/3/8 24/4/8 21/1/8 
s 8
f 17/1/9 20/2/10 22/3/9 
f 22/3/9 21/4/9 17/1/9 
s 16
f 20/1/1 19/2/1 23/3/1 
f 23/3/1 22/4/1 20/1/1 
s 32
f 19/1/4 18/2/4 24/3/4 
f 24/3/4 23/4/4 19/1/4 
s 64
f 18/1/11 17/2/11 21/3/11 
f 21/3/11 24/4/11 18/1/11 
s 32
f 25/13/12 26/14/12 6/6/3 
f 6/6/3 5/5/2 25/13/12 
f 3/4/4 2/1/4 8/8/4 
f 8/8/4 7/7/4 3/4/4 
s 2
f 2/4/5 1/1/5 16/8/5 
f 16/8/5 8/7/5 2/4/5 
f 27/13/5 25/14/5 5/6/5 
f 5/6/5 15/5/5 27/13/5 
s 4
f 4/2/6 3/3/13 7/10/6 
f 7/10/6 13/9/6 4/2/6 
f 26/15/14 28/16/15 14/12/6 
f 14/12/6 6/11/6 26/15/14 
s 8
f 16/9/7 1/2/7 4/3/7 
f 4/3/7 13/10/7 16/9/7 
f 14/11/7 28/15/7 27/16/7 
f 27/16/7 15/12/7 14/11/7 
s off
f 15/12/7 29/17/7 30/18/7 
f 30/18/7 16/9/7 15/12/7 
f 5/6/16 31/6/16 29/5/16 
f 29/5/16 15/5/16 5/6/16 
f 8/8/4 32/19/4 31/20/4 
f 31/20/4 5/5/4 8/8/4 
f 16/8/1 30/8/1 32/7/1 
f 32/7/1 8/7/1 16/8/1 
f 11/5/7 10/8/7 30/18/7 
f 30/18/7 29/17/7 11/5/7 
f 12/6/16 11/5/16 29/5/16 
f 29/5/16 31/6/16 12/6/16 
f 9/7/4 12/6/4 31/20/4 
f 31/20/4 32/19/4 9/7/4 
f 33/8/1 34/7/1 35/7/1 
f 35/7/1 36/8/1 33/8/1 
f 10/8/17 9/7/17 34/7/17 
f 34/7/17 33/8/17 10/8/17 
f 9/7/4 32/19/4 35/7/4 
f 35/7/4 34/7/4 9/7/4 
f 32/7/18 30/8/18 36/8/18 
f 36/8/18 35/7/18 32/7/18 
f 30/18/7 10/8/7 33/8/7 
f 33/8/7 36/8/7 30/18/7 
s 16
f 37/1/16 38/4/16 39/3/16 
f 39/3/16 40/2/16 37/1/16 
s 32
f 41/5/4 42/8/4 43/7/4 
f 43/7/4 44/6/12 41/5/4 
s 2
f 45/7/5 46/6/5 47/5/5 
f 47/5/5 48/8/5 45/7/5 
s 4
f 49/9/19 50/12/19 44/11/19 
f 44/11/19 43/10/19 49/9/19 
s 8
f 51/12/7 50/11/7 49/10/7 
f 49/10/7 52/9/7 51/12/7 
s 2
f 53/2/5 54/1/5 55/4/5 
f 55/4/5 56/3/5 53/2/5 
s 4
f 57/1/20 58/4/20 59/3/20 
f 59/3/20 60/2/20 57/1/20 
s 8
f 53/1/10 57/4/10 60/3/10 
f 60/3/10 54/2/10 53/1/10 
s 16
f 54/1/16 60/4/16 59/3/16 
f 59/3/16 55/2/16 54/1/16 
s 32
f 55/1/2 59/4/2 58/3/2 
f 58/3/2 56/2/4 55/1/2 
s 64
f 56/1/21 58/4/21 57/3/21 
f 57/3/21 53/2/21 56/1/21 
s 32
f 25/13/12 41/5/4 44/6/12 
f 44/6/12 26/14/12 25/13/12 
f 39/4/4 43/7/4 42/8/4 
f 42/8/4 40/1/4 39/4/4 
s 2
f 40/4/5 42/7/5 52/8/5 
f 52/8/5 37/1/5 40/4/5 
f 27/13/5 51/5/5 41/6/5 
f 41/6/5 25/14/5 27/13/5 
s 4
f 38/2/19 49/9/19 43/10/19 
f 43/10/19 39/3/22 38/2/19 
f 26/15/14 44/11/19 50/12/19 
f 50/12/19 28/16/15 26/15/14 
s 8
f 52/9/7 49/10/7 38/3/7 
f 38/3/7 37/2/7 52/9/7 
f 50/11/7 51/12/7 27/16/7 
f 27/16/7 28/15/7 50/11/7 
s off
f 51/12/7 52/9/7 61/18/7 
f 61/18/7 62/17/7 51/12/7 
f 41/6/1 51/5/1 62/5/1 
f 62/5/1 63/6/1 41/6/1 
f 42/8/4 41/5/4 63/20/4 
f 63/20/4 64/19/4 42/8/4 
f 52/8/16 42/7/16 64/7/16 
f 64/7/16 61/8/16 52/8/16 
f 47/5/7 62/17/7 61/18/7 
f 61/18/7 48/8/7 47/5/7 
f 46/6/1 63/6/1 62/5/1 
f 62/5/1 47/5/1 46/6/1 
f 45/7/4 64/19/4 63/20/4 
f 63/20/4 46/6/4 45/7/4 
f 65/8/16 66/8/16 67/7/16 
f 67/7/16 68/7/16 65/8/16 
f 48/8/23 65/8/23 68/7/23 
f 68/7/23 45/7/23 48/8/23 
f 45/7/4 68/7/4 67/7/4 
f 67/7/4 64/19/4 45/7/4 
f 64/7/24 67/7/24 66/8/24 
f 66/8/24 61/8/24 64/7/24 
f 61/18/7 66/8/7 65/8/7 
f 65/8/7 48/8/7 61/18/7 
s 2
f 69/21/5 70/22/5 71/23/5 
f 71/23/5 72/24/5 69/21/5 
s 4
f 73/23/15 74/24/15 75/21/15 
f 75/21/15 76/22/15 73/23/15 
s 8
f 70/23/7 73/24/7 76/21/7 
f 76/21/7 71/22/7 70/23/7 
s 16
f 77/1/1 78/2/1 79/3/1 
f 79/3/1 80/4/1 77/1/1 
s 32
f 72/23/4 75/24/4 74/21/4 
f 74/21/4 69/22/4 72/23/4 
s 2
f 81/25/5 82/26/5 70/22/5 
f 70/22/5 69/21/5 81/25/5 
f 83/27/5 84/28/5 72/24/5 
f 72/24/5 71/23/5 83/27/5 
s 4
f 85/29/25 86/30/25 87/24/25 
f 87/24/25 88/23/25 85/29/25 
f 89/31/15 90/32/15 91/22/15 
f 91/22/15 92/21/15 89/31/15 
s 8
f 82/29/7 93/30/7 73/24/7 
f 73/24/7 70/23/7 82/29/7 
f 94/31/7 83/32/7 71/22/7 
f 71/22/7 76/21/7 94/31/7 
s 32
f 84/27/4 95/28/4 75/24/4 
f 75/24/4 72/23/4 84/27/4 
f 96/25/4 81/26/4 69/22/4 
f 69/22/4 74/21/4 96/25/4 
s off
f 80/4/1 79/3/1 97/3/1 
f 97/3/1 98/2/1 80/4/1 
f 96/25/4 86/30/4 97/3/4 
f 97/3/4 79/4/4 96/25/4 
f 74/24/16 73/23/16 88/23/16 
f 88/23/16 87/24/16 74/24/16 
f 93/30/7 85/29/7 88/23/7 
f 88/23/7 73/24/7 93/30/7 
f 76/22/26 75/21/26 92/21/26 
f 92/21/26 91/22/26 76/22/26 
f 95/28/4 89/31/4 92/21/4 
f 92/21/4 75/24/4 95/28/4 
s 2
f 78/4/5 77/1/5 82/26/5 
f 82/26/5 81/25/5 78/4/5 
s 4
f 99/2/15 100/3/15 101/30/15 
f 101/30/15 102/29/15 99/2/15 
s 8
f 77/2/7 80/3/7 93/30/7 
f 93/30/7 82/29/7 77/2/7 
s 32
f 79/4/4 78/1/4 81/26/4 
f 81/26/4 96/25/4 79/4/4 
s off
f 74/21/4 87/24/4 86/30/4 
f 86/30/4 96/25/4 74/21/4 
f 80/3/7 98/2/7 85/29/7 
f 85/29/7 93/30/7 80/3/7 
f 98/2/1 97/3/1 100/3/1 
f 100/3/1 99/2/1 98/2/1 
f 97/3/4 86/30/4 101/30/4 
f 101/30/4 100/3/4 97/3/4 
f 86/30/16 85/29/16 102/29/16 
f 102/29/16 101/30/16 86/30/16 
f 85/29/7 98/2/7 99/2/7 
f 99/2/7 102/29/7 85/29/7 
f 76/21/7 91/22/7 90/32/7 
f 90/32/7 94/31/7 76/21/7 
s 2
f 103/21/5 104/24/5 105/23/5 
f 105/23/5 106/22/5 103/21/5 
s 4
f 107/23/15 108/22/15 109/21/15 
f 109/21/15 110/24/15 107/23/15 
s 8
f 106/23/7 105/22/7 108/21/7 
f 108/21/7 107/24/7 106/23/7 
s 16
f 111/1/16 112/4/16 113/3/16 
f 113/3/16 114/2/16 111/1/16 
s 32
f 104/23/4 103/22/4 110/21/4 
f 110/21/4 109/24/4 104/23/4 
s 2
f 115/25/5 103/21/5 106/22/5 
f 106/22/5 116/26/5 115/25/5 
f 83/27/5 105/23/5 104/24/5 
f 104/24/5 84/28/5 83/27/5 
s 4
f 117/29/27 118/23/27 119/24/27 
f 119/24/27 120/30/27 117/29/27 
f 89/31/15 121/21/15 122/22/15 
f 122/22/15 90/32/15 89/31/15 
s 8
f 116/29/7 106/23/7 107/24/7 
f 107/24/7 123/30/7 116/29/7 
f 94/31/7 108/21/7 105/22/7 
f 105/22/7 83/32/7 94/31/7 
s 32
f 84/27/4 104/23/4 109/24/4 
f 109/24/4 95/28/4 84/27/4 
f 124/25/4 110/21/4 103/22/4 
f 103/22/4 115/26/4 124/25/4 
s off
f 112/4/16 125/2/16 126/3/16 
f 126/3/16 113/3/16 112/4/16 
f 124/25/4 113/4/4 126/3/4 
f 126/3/4 120/30/4 124/25/4 
f 110/24/1 119/24/1 118/23/1 
f 118/23/1 107/23/1 110/24/1 
f 123/30/7 107/24/7 118/23/7 
f 118/23/7 117/29/7 123/30/7 
f 108/22/28 122/22/28 121/21/28 
f 121/21/28 109/21/28 108/22/28 
f 95/28/4 109/24/4 121/21/4 
f 121/21/4 89/31/4 95/28/4 
s 2
f 114/4/5 115/25/5 116/26/5 
f 116/26/5 111/1/5 114/4/5 
s 4
f 127/2/15 128/29/15 129/30/15 
f 129/30/15 130/3/15 127/2/15 
s 8
f 111/2/7 116/29/7 123/30/7 
f 123/30/7 112/3/7 111/2/7 
s 32
f 113/4/4 124/25/4 115/26/4 
f 115/26/4 114/1/4 113/4/4 
s off
f 110/21/4 124/25/4 120/30/4 
f 120/30/4 119/24/4 110/21/4 
f 112/3/7 123/30/7 117/29/7 
f 117/29/7 125/2/7 112/3/7 
f 125/2/16 127/2/16 130/3/16 
f 130/3/16 126/3/16 125/2/16 
f 126/3/4 130/3/4 129/30/4 
f 129/30/4 120/30/4 126/3/4 
f 120/30/1 129/30/1 128/29/1 
f 128/29/1 117/29/1 120/30/1 
f 117/29/7 128/29/7 127/2/7 
f 127/2/7 125/2/7 117/29/7 
f 108/21/7 94/31/7 90/32/7 
f 90/32/7 122/22/7 108/21/7 
# 244 faces

